<svg width="40" height="35" viewBox="0 0 40 35" fill="none" xmlns="http://www.w3.org/2000/svg">
<path d="M35.4371 3.94263H29.257L25.7066 0.036377H14.0038L10.4535 3.94263H4.27339C2.16951 3.94263 0.328613 5.63533 0.328613 7.84888V31.026C0.328613 33.1093 2.03802 34.9322 4.27339 34.9322H35.4371C37.541 34.9322 39.3819 33.2395 39.3819 31.026V7.71867C39.3819 5.63533 37.6725 3.94263 35.4371 3.94263ZM35.4371 30.8957H4.40488V7.71867H12.2944L15.8447 3.81242H24.1287L27.5475 7.71867H35.4371V30.8957ZM19.921 9.67179C14.5298 9.67179 10.1905 13.9687 10.1905 19.3072C10.1905 24.6457 14.5298 28.9426 19.921 28.9426C25.3122 28.9426 29.6514 24.6457 29.6514 19.3072C29.6514 13.9687 25.3122 9.67179 19.921 9.67179ZM19.921 25.1666C16.7652 25.1666 14.1353 22.5624 14.1353 19.4374C14.1353 16.3124 16.7652 13.7083 19.921 13.7083C23.0768 13.7083 25.7066 16.3124 25.7066 19.4374C25.7066 22.5624 23.0768 25.1666 19.921 25.1666Z" fill="#911C1C"/>
</svg>
